<svg viewBox="0 0 64 64" fill="none" xmlns="http://www.w3.org/2000/svg">
  <rect width="64" height="64" rx="16" fill="#fff"/>
  <path d="M38 20.9c1.2 0 2.1.7 2.5 1.7h9a2.6 2.6 0 110 1.7h-9a2.6 2.6 0 11-2.4-3.4zm14 3.4a.9.9 0 100-1.7.9.9 0 000 1.7zm-14 0a.9.9 0 100-1.7.9.9 0 000 1.7z" fill="#00B2FF"/>
  <path d="M31.1 26.2V21c0-.3.1-.5.3-.6l3.5-3.5c.1-.2.3-.3.6-.3h2.7a2.6 2.6 0 110 1.8h-2.4l-3 3v5a2.6 2.6 0 11-1.7 0zm9.6-8a.9.9 0 100-1.7.9.9 0 000 1.8zM32 29.6a.9.9 0 100-1.7.9.9 0 000 1.7zM15.5 29.5c.4 0 .8.1 1.1.3l1.5-1.5V20c0-.2.1-.5.3-.6l8.7-8.7c-.2-.3-.3-.7-.3-1.1a2.6 2.6 0 112.6 2.6c-.4 0-.8-.1-1.1-.3l-8.4 8.5v8.3l-.3.6L18 31l.2 1.1a2.6 2.6 0 11-2.6-2.6zm13.9-19a.9.9 0 100-1.8.9.9 0 000 1.8zM15.5 33a.9.9 0 100-1.7.9.9 0 000 1.7zM7.7 19.3v-3.6c0-.3.1-.5.3-.6L14 9c.2-.2.4-.3.7-.3h4.5a2.6 2.6 0 110 1.8H15L9.5 16v3.3a2.6 2.6 0 11-1.8 0zm13.9-8.8a.9.9 0 100-1.8.9.9 0 000 1.8zm-13 12.1a.9.9 0 100-1.7.9.9 0 000 1.7zM19.9 54V41.5a2.6 2.6 0 113.3-3.3h9c.3-1 1.3-1.7 2.4-1.7 1.1 0 2 .7 2.4 1.7h5l3.3-3.2c-.2-.4-.3-.7-.3-1.1a2.6 2.6 0 112.6 2.6c-.4 0-.8-.1-1.1-.3L43 39.7l-.6.2H37c-.3 1-1.3 1.8-2.4 1.8-1.1 0-2-.8-2.4-1.8h-9c-.3.8-.9 1.3-1.6 1.6V54a2.6 2.6 0 11-1.7 0zm27.7-19.3a.9.9 0 100-1.7.9.9 0 000 1.7zm-13 5.2a.9.9 0 100-1.7.9.9 0 000 1.7zM20.7 57.3a.9.9 0 100-1.8.9.9 0 000 1.8zm0-17.4a.9.9 0 100-1.7.9.9 0 000 1.7z" fill="#00B2FF"/>
  <path d="M24.2 24.5v-2.8c0-.2 0-.4.3-.6l10.4-10.4c-.2-.3-.3-.7-.3-1.1 0-1.4 1.2-2.6 2.6-2.6 1.1 0 2 .7 2.4 1.7h3.7c.4 0 .8.4.8.9v2.2l3.3 3.3c.3-.2.7-.3 1-.3a2.6 2.6 0 11-2.5 2.6c0-.4 0-.8.2-1.1l-3.4-3.5a.9.9 0 01-.3-.6v-1.7h-2.8a2.6 2.6 0 01-3.5 1.4L25.9 22.1v2.4a2.6 2.6 0 11-1.7 0zm24.3-6.2a.9.9 0 100-1.8.9.9 0 000 1.8zm-11.3-7.8a.9.9 0 100-1.8.9.9 0 000 1.8zM25.1 27.8a.9.9 0 100-1.7.9.9 0 000 1.7z" fill="#00B2FF"/>
  <path d="M26.8 31.3c1.1 0 2 .7 2.4 1.7h10.2l5-5 .6-.2h9.2l2-2v-7.2L49.7 12c-.4.2-.7.3-1.1.3A2.6 2.6 0 1151 9.6c0 .4-.1.8-.3 1.1l7 7 .2.6V26c0 .2 0 .4-.3.6l-2.6 2.6-.6.2h-9.1l-5 5-.6.2H29.2a2.6 2.6 0 11-2.4-3.4zM48.5 8.7a.9.9 0 100 1.8.9.9 0 000-1.8zm-21.7 26a.9.9 0 100-1.7.9.9 0 000 1.7zM8.6 27.8c.4 0 .8.1 1.1.3l3.2-3.3v-5a2.6 2.6 0 111.8 0v5.4c0 .2-.1.5-.3.6L11 29.3a2.6 2.6 0 01-1.4 3.5v.7l6.6 6.7c.2.1.3.4.3.6v1c1 .4 1.7 1.3 1.7 2.5 0 1-.7 2-1.7 2.4v2a2.6 2.6 0 11-1.7 0v-2c-1-.4-1.8-1.3-1.8-2.4 0-1.2.8-2.1 1.8-2.5v-.6L8 34.5a.9.9 0 01-.3-.6v-1a2.6 2.6 0 01.9-5.1zm5.2-9.5a.9.9 0 100-1.8.9.9 0 000 1.8zM15.5 52a.9.9 0 100-1.8.9.9 0 000 1.8zm0-7a.9.9 0 100-1.7.9.9 0 000 1.7zM8.6 31.3a.9.9 0 100-1.8.9.9 0 000 1.8z" fill="#00B2FF"/>
</svg>