<svg viewBox="0 0 29 35" fill="none" xmlns="http://www.w3.org/2000/svg"><path d="M3.188 11.662 1.702 10.19a2.038 2.038 0 0 1 0-2.9c.807-.8 2.122-.8 2.929 0l1.587 1.572a14.58 14.58 0 0 1 5.52-2.311V4.51h-1.38a.687.687 0 0 1-.691-.683V2.051C9.667.92 10.596 0 11.738 0h5.524c1.142 0 2.071.92 2.071 2.05v1.778a.687.687 0 0 1-.69.684h-1.381V6.55a14.578 14.578 0 0 1 5.52 2.31l1.587-1.57c.807-.8 2.121-.8 2.93 0a2.04 2.04 0 0 1 0 2.9l-1.487 1.471A14.252 14.252 0 0 1 29 20.644C29 28.56 22.495 35 14.5 35S0 28.56 0 20.645c0-3.277 1.128-6.442 3.188-8.983Zm.467-3.405a.696.696 0 0 0-.977 0 .68.68 0 0 0 0 .967l1.427 1.412c.322-.327.659-.638 1.01-.934l-1.46-1.445Zm14.297-6.206a.688.688 0 0 0-.69-.684h-5.524c-.38 0-.69.307-.69.684v1.094h6.904V2.05ZM13.12 4.51v1.843a15.006 15.006 0 0 1 2.762 0V4.512H13.12Zm13.203 3.746a.696.696 0 0 0-.977 0l-1.46 1.445c.351.296.688.607 1.01.934l1.427-1.412a.68.68 0 0 0 0-.967ZM14.5 33.633c7.234 0 13.119-5.827 13.119-12.989 0-3.159-1.158-6.202-3.262-8.57A13.177 13.177 0 0 0 14.5 7.656a13.18 13.18 0 0 0-7.936 2.645 13.19 13.19 0 0 0-1.921 1.771 12.898 12.898 0 0 0-3.262 8.572c0 7.161 5.885 12.988 13.119 12.988Z" fill="currentColor"/><path d="M14.5 22.695a2.063 2.063 0 0 1-2.071-2.05c0-.892.577-1.651 1.38-1.934V13.81c0-.378.31-.684.691-.684.382 0 .69.306.69.684v4.902a2.056 2.056 0 0 1 1.382 1.934c0 1.13-.93 2.05-2.072 2.05Zm0-2.734c-.38 0-.69.306-.69.684 0 .377.31.683.69.683.38 0 .69-.306.69-.683a.688.688 0 0 0-.69-.684Z" fill="currentColor"/><path d="M7.145 13.433a.54.54 0 0 1 .033-.037l.04-.037a10.417 10.417 0 0 1 4.353-2.55.682.682 0 1 1 .391 1.311 9.028 9.028 0 0 0-3.298 1.78l.466.46c.27.268.27.7 0 .968a.692.692 0 0 1-.977 0l-.467-.462A8.758 8.758 0 0 0 5.55 19.96h.664c.382 0 .69.306.69.684a.686.686 0 0 1-.69.683H5.55a8.757 8.757 0 0 0 2.136 5.096l.467-.463a.696.696 0 0 1 .977 0c.27.267.27.7 0 .967l-.467.462a8.941 8.941 0 0 0 5.147 2.115v-.657c0-.378.309-.684.69-.684.381 0 .69.306.69.684v.657a8.939 8.939 0 0 0 5.147-2.115l-.467-.462a.679.679 0 0 1 0-.967.696.696 0 0 1 .977 0l.467.463a8.758 8.758 0 0 0 2.136-5.096h-.664a.687.687 0 0 1-.69-.683c0-.378.308-.684.69-.684h.664a8.758 8.758 0 0 0-2.136-5.095l-.467.462a.692.692 0 0 1-.977 0 .68.68 0 0 1 0-.967l.466-.461a9.024 9.024 0 0 0-3.298-1.78.682.682 0 0 1-.466-.85.692.692 0 0 1 .857-.462 10.414 10.414 0 0 1 4.351 2.55.672.672 0 0 1 .042.037l.033.037a10.132 10.132 0 0 1 3.002 7.213c0 2.718-1.066 5.277-3.002 7.211a.555.555 0 0 1-.033.037.38.38 0 0 1-.037.033 10.34 10.34 0 0 1-7.285 2.972c-2.746 0-5.33-1.055-7.284-2.971l-.038-.034c-.012-.011-.022-.024-.033-.036a10.132 10.132 0 0 1-3.002-7.212 10.13 10.13 0 0 1 3.002-7.212Z" fill="currentColor"/><path d="M14.5 11.758a.687.687 0 0 1-.69-.684c0-.377.309-.683.69-.683.381 0 .69.306.69.683a.688.688 0 0 1-.69.684Z" fill="currentColor"/></svg>